<?xml version="1.0" encoding="UTF-8"?><svg xmlns="http://www.w3.org/2000/svg" xmlns:xlink="http://www.w3.org/1999/xlink" fill-opacity="1" color-rendering="auto" color-interpolation="auto" text-rendering="auto" stroke="black" stroke-linecap="square" width="538" stroke-miterlimit="10" shape-rendering="auto" stroke-opacity="1" fill="black" stroke-dasharray="none" font-weight="normal" stroke-width="1" height="352" font-family="'Dialog'" font-style="normal" stroke-linejoin="miter" font-size="12px" stroke-dashoffset="0" image-rendering="auto">
  <!--Generated by ySVG 2.5-->
  <defs id="genericDefs"/>
  <g>
    <g fill="white" text-rendering="geometricPrecision" shape-rendering="geometricPrecision" transform="translate(-219,5)" stroke="white">
      <rect x="219" width="538" height="352" y="-5" clip-path="url(#clipPath2)" stroke="none"/>
    </g>
    <g fill="rgb(255,204,0)" text-rendering="geometricPrecision" shape-rendering="geometricPrecision" transform="matrix(1,0,0,1,-219,5)" stroke="rgb(255,204,0)">
      <rect x="472" width="85" height="30" y="144" clip-path="url(#clipPath2)" stroke="none"/>
    </g>
    <g text-rendering="geometricPrecision" stroke-miterlimit="1.45" shape-rendering="geometricPrecision" transform="matrix(1,0,0,1,-219,5)" stroke-linecap="butt">
      <rect fill="none" x="472" width="85" height="30" y="144" clip-path="url(#clipPath2)"/>
      <text x="492.1523" xml:space="preserve" y="163.7139" clip-path="url(#clipPath2)" font-family="sans-serif" stroke="none">gateway</text>
    </g>
    <g fill="rgb(255,204,0)" text-rendering="geometricPrecision" shape-rendering="geometricPrecision" transform="matrix(1,0,0,1,-219,5)" stroke="rgb(255,204,0)">
      <rect x="319" width="85" height="30" y="302" clip-path="url(#clipPath2)" stroke="none"/>
    </g>
    <g text-rendering="geometricPrecision" stroke-miterlimit="1.45" shape-rendering="geometricPrecision" transform="matrix(1,0,0,1,-219,5)" stroke-linecap="butt">
      <rect fill="none" x="319" width="85" height="30" y="302" clip-path="url(#clipPath2)"/>
      <text x="338.4873" xml:space="preserve" y="321.7139" clip-path="url(#clipPath2)" font-family="sans-serif" stroke="none">products</text>
    </g>
    <g fill="rgb(255,204,0)" text-rendering="geometricPrecision" shape-rendering="geometricPrecision" transform="matrix(1,0,0,1,-219,5)" stroke="rgb(255,204,0)">
      <rect x="625" width="85" height="30" y="302" clip-path="url(#clipPath2)" stroke="none"/>
    </g>
    <g text-rendering="geometricPrecision" stroke-miterlimit="1.45" shape-rendering="geometricPrecision" transform="matrix(1,0,0,1,-219,5)" stroke-linecap="butt">
      <rect fill="none" x="625" width="85" height="30" y="302" clip-path="url(#clipPath2)"/>
      <text x="650.4932" xml:space="preserve" y="321.7139" clip-path="url(#clipPath2)" font-family="sans-serif" stroke="none">orders</text>
    </g>
    <g fill="rgb(255,204,0)" text-rendering="geometricPrecision" shape-rendering="geometricPrecision" transform="matrix(1,0,0,1,-219,5)" stroke="rgb(255,204,0)">
      <rect x="472" width="85" height="30" y="302" clip-path="url(#clipPath2)" stroke="none"/>
    </g>
    <g text-rendering="geometricPrecision" stroke-miterlimit="1.45" shape-rendering="geometricPrecision" transform="matrix(1,0,0,1,-219,5)" stroke-linecap="butt">
      <rect fill="none" x="472" width="85" height="30" y="302" clip-path="url(#clipPath2)"/>
      <text x="490.4854" xml:space="preserve" y="321.7139" clip-path="url(#clipPath2)" font-family="sans-serif" stroke="none">accounts</text>
    </g>
    <g text-rendering="geometricPrecision" shape-rendering="geometricPrecision" transform="matrix(0.7617,0,0,0.639,279.8846,15)">
      <g clip-path="url(#clipPath3)">
        <svg xmlns:svg="http://www.w3.org/2000/svg" xmlns:sodipodi="http://sodipodi.sourceforge.net/DTD/sodipodi-0.dtd" xmlns:inkscape="http://www.inkscape.org/namespaces/inkscape" xmlns:dc="http://purl.org/dc/elements/1.1/" xmlns:cc="http://web.resource.org/cc/" xmlns:rdf="http://www.w3.org/1999/02/22-rdf-syntax-ns#" opacity="1" writing-mode="lr-tb" stop-color="rgb(0, 0, 0)" shape-rendering="auto" glyph-orientation-horizontal="0deg" color-profile="auto" lighting-color="rgb(255, 255, 255)" color="rgb(0, 0, 0)" font-weight="400" alignment-baseline="auto" font-style="normal" version="1.0" color-interpolation-filters="linearrgb" text-anchor="start" stroke-linecap="butt" color-interpolation="srgb" font-variant="normal" word-spacing="normal" fill-opacity="1" text-rendering="auto" clip-path="none" text-decoration="none" letter-spacing="normal" glyph-orientation-vertical="auto" display="inline" font-size-adjust="none" overflow="hidden" fill="rgb(0, 0, 0)" font-stretch="normal" stroke-dasharray="none" inkscape:version="0.45.1" id="svg1.svg2" stroke-miterlimit="4" stop-opacity="1" color-rendering="auto" font-size="12" sodipodi:docbase="C:\Daten\alberts\projects\yfx" pointer-events="visiblepainted" mask="none" direction="ltr" baseline-shift="baseline" sodipodi:docname="uml_actor.svg" enable-background="accumulate" fill-rule="nonzero" image-rendering="auto" stroke-dashoffset="0" inkscape:output_extension="org.inkscape.output.svg.inkscape" marker-end="none" width="41" clip="auto" cursor="auto" stroke="none" filter="none" visibility="visible" kerning="auto" stroke-width="1" font-family="&quot;Arial&quot;,&quot;Helvetica&quot;,sans-serif" flood-opacity="1" clip-rule="nonzero" src="none" height="68.997391" unicode-bidi="normal" sodipodi:version="0.32" stroke-linejoin="miter" stroke-opacity="1" flood-color="rgb(0, 0, 0)" dominant-baseline="auto" marker-start="none" marker-mid="none">
            
          <defs id="svg1.defs4">
            <clipPath clipPathUnits="userSpaceOnUse" id="clipPath1">
              <path d="M0 0 L538 0 L538 352 L0 352 L0 0 Z"/>
            </clipPath>
            <clipPath clipPathUnits="userSpaceOnUse" id="clipPath2">
              <path d="M219 -5 L757 -5 L757 347 L219 347 L219 -5 Z"/>
            </clipPath>
            <clipPath clipPathUnits="userSpaceOnUse" id="clipPath3">
              <path d="M-367.4349 -23.4736 L338.856 -23.4736 L338.856 527.3736 L-367.4349 527.3736 L-367.4349 -23.4736 Z"/>
            </clipPath>
          </defs>
            
  
          <metadata id="svg1.metadata7">
    
  </metadata>
            
          <g inkscape:groupmode="layer" id="svg1.layer1" transform="translate(-29.5,-42.959476)" inkscape:label="Ebene 1">
                
            <a id="svg1.a3142" transform="matrix(1.0873906,0,0,1,-4.4741999,0)">
                    
              <path transform="translate(11.586889,5.2908993)" style="fill:none;fill-rule:evenodd;stroke:#000000;stroke-width:1px;stroke-linecap:butt;stroke-linejoin:miter;stroke-opacity:1" sodipodi:cx="38.509369" sodipodi:cy="47.36993" sodipodi:rx="8.5197716" id="svg1.path2160" d="M 47.02914 47.36993 A 8.5197716 9.2013531 0 1 1  29.989597,47.36993 A 8.5197716 9.2013531 0 1 1  47.02914 47.36993 z" sodipodi:ry="9.2013531" sodipodi:type="arc"/>
                  
            </a>
                
            <path style="fill:none" sodipodi:cx="43.962021" sodipodi:cy="48.392303" d="M 47.71072 48.392303 A 3.7486994 0 0 1 1  40.213321,48.392303 A 3.7486994 0 0 1 1  47.71072 48.392303 z" id="svg1.path3134" sodipodi:rx="3.7486994" sodipodi:ry="0" sodipodi:type="arc"/>
                
            <path style="fill:none;fill-rule:evenodd;stroke:#000000;stroke-width:1.24319649px;stroke-linecap:butt;stroke-linejoin:miter;stroke-opacity:1" d="M 50,61.33709 C 50,91.363211 50,92.247838 50,92.247838" id="svg1.path3136"/>
                
            <path style="fill:none;fill-rule:evenodd;stroke:#000000;stroke-width:1px;stroke-linecap:butt;stroke-linejoin:miter;stroke-opacity:1" d="M 69.760668,72.362183 C 69.760668,72.362183 69.760668,72.362183 50.239332,72.362183 C 30.239332,72.362183 30.239332,72.362183 30.239332,72.362183 L 30.239332,72.362183" id="svg1.path3138"/>
                
            <path style="fill:none;fill-rule:evenodd;stroke:#000000;stroke-width:1px;stroke-linecap:butt;stroke-linejoin:miter;stroke-opacity:1" d="M 30,111.45687 C 30,111.45687 30,111.45687 50,92.013532 C 70,111.45687 70,111.45687 70,111.45687" id="svg1.path3140"/>
              
          </g>
          
        </svg>
      </g>
    </g>
    <g text-rendering="geometricPrecision" stroke-miterlimit="1.45" shape-rendering="geometricPrecision" transform="matrix(1,0,0,1,-219,5)" stroke-linecap="butt">
      <path fill="none" d="M472 159 L361.5 159 L361.5 294" clip-path="url(#clipPath2)"/>
      <path d="M361.5 302 L366.5 290 L361.5 293 L356.5 290 Z" clip-path="url(#clipPath2)" stroke="none"/>
      <text x="236.7998" xml:space="preserve" y="228.0386" clip-path="url(#clipPath2)" font-family="sans-serif" stroke="none">2. GET /products/v1/{id}</text>
      <path fill="none" d="M557 159 L667.5 159 L667.5 294" clip-path="url(#clipPath2)"/>
      <path d="M667.5 302 L672.5 290 L667.5 293 L662.5 290 Z" clip-path="url(#clipPath2)" stroke="none"/>
      <text x="652.6816" xml:space="preserve" y="220.9064" clip-path="url(#clipPath2)" font-family="sans-serif" stroke="none">4. POST /orders</text>
      <path fill="none" d="M514.5 174 L514.5 294" clip-path="url(#clipPath2)"/>
      <path d="M514.5 302 L519.5 290 L514.5 293 L509.5 290 Z" clip-path="url(#clipPath2)" stroke="none"/>
      <text x="414.7793" xml:space="preserve" y="242.7139" clip-path="url(#clipPath2)" font-family="sans-serif" stroke="none">3. POST /accounts/v1/{id}/transaction</text>
      <path fill="none" d="M525.8672 144 L563 95 L534.8916 58.488" clip-path="url(#clipPath2)"/>
      <path d="M530.0115 52.1489 L533.3697 64.7077 L535.5016 59.2804 L541.2936 58.6075 Z" clip-path="url(#clipPath2)" stroke="none"/>
      <text x="572.1888" xml:space="preserve" y="103.0423" clip-path="url(#clipPath2)" font-family="sans-serif" stroke="none">6. Response with created order</text>
      <path fill="none" d="M499.0149 53.7812 L469 96 L498.9827 137.5146" clip-path="url(#clipPath2)"/>
      <path d="M503.6667 144 L500.6942 131.3444 L498.3972 136.7039 L492.5874 137.1993 Z" clip-path="url(#clipPath2)" stroke="none"/>
      <text x="359.1333" xml:space="preserve" y="101.7471" clip-path="url(#clipPath2)" font-family="sans-serif" stroke="none">1. POST /api/v1/orders</text>
    </g>
  </g>
</svg>
